<svg width="131" height="131" viewBox="0 0 131 131" fill="none" xmlns="http://www.w3.org/2000/svg">
<path d="M104.789 0H26.1972C11.7289 0 0 11.7301 0 26.2V104.8C0 119.27 11.7289 131 26.1972 131H104.789C119.257 131 130.986 119.27 130.986 104.8V26.2C130.986 11.7301 119.257 0 104.789 0Z" fill="#1D2C3F"/>
<path d="M59.608 28.0227L81.938 28.0243L88.6439 28.022C89.8508 28.0223 91.1475 27.9853 92.3418 28.0914C94.1266 28.2497 94.585 30.5256 95.0998 31.9324L96.7815 36.5538C97.3876 38.2177 98.507 40.9347 98.9647 42.5351C99.0997 42.9962 99.1635 43.4752 99.1538 43.9556C99.0537 47.7973 94.5554 46.3543 92.048 46.6248C91.5822 46.6751 90.8908 46.6235 90.4005 46.6241L67.1522 46.6253L60.7757 46.6249C58.6156 46.6251 56.4456 46.256 54.7644 47.8603C53.9072 48.6846 53.4141 49.8195 53.3951 51.0117C53.3556 53.1541 54.9356 55.179 57.109 55.4607C58.1935 55.6013 59.5317 55.5244 60.6402 55.5195L66.5662 55.5162L82.6516 55.5161C85.5157 55.5145 88.382 55.5052 91.2469 55.5177C92.1267 55.5216 93.0428 55.6107 93.6949 56.294C93.9285 56.5749 94.1978 57.0186 94.3113 57.3625C95.8513 62.0304 97.4276 66.6878 98.938 71.3652C99.0544 71.7261 99.0952 72.1048 99.096 72.5381C99.0975 73.5148 98.4276 74.3775 97.5226 74.7094C95.401 75.0285 92.005 74.8809 89.8701 74.8771L67.0958 74.8823L60.5742 74.8712C59.7536 74.8689 57.879 74.816 57.1653 74.9241C56.3059 75.0456 55.5022 75.4222 54.8567 76.0053C53.9636 76.8195 53.4329 77.9596 53.3834 79.1698C53.3444 80.3136 53.8346 81.608 54.6421 82.4185C55.2705 83.059 56.0802 83.4885 56.9607 83.6496C57.7462 83.789 58.9047 83.7368 59.7285 83.7338L64.0803 83.7211L79.0775 83.7204H87.4971C88.9777 83.7197 90.468 83.6742 91.9457 83.7644C94.0383 83.8926 94.2809 85.3809 94.8076 86.9945L95.9314 90.4267L98.0574 96.8787C98.4142 97.9673 98.9558 99.3594 99.1145 100.455C99.2874 101.646 98.1427 102.873 96.9499 102.935C95.1681 103.026 93.4167 102.995 91.643 102.994L81.2599 102.991L65.6159 102.993C62.9675 102.994 60.2768 103.013 57.6283 102.979C57.0204 102.957 56.6334 102.861 56.1581 102.48C55.099 101.631 55.3176 100.325 55.3222 99.0969L55.3334 95.277C55.3412 92.712 55.3512 90.3648 52.4734 89.2172C51.5175 88.8362 49.8405 88.9615 48.7766 88.9645L41.7764 88.9779C35.9617 88.9861 36.4746 89.2702 34.7254 83.8494L32.9301 78.3242C32.3248 76.4288 31.5724 74.4551 31.1865 72.5291C30.9625 71.4114 32.0369 69.9626 33.1438 69.8456C34.6298 69.6882 36.2573 69.7538 37.7547 69.7546L47.0671 69.7553C48.4985 69.7531 49.9804 69.7926 51.4035 69.7442C52.488 69.7084 53.6076 69.038 54.3018 68.1917C55.0544 67.2694 55.4102 66.0838 55.2902 64.8971C55.2049 63.9854 54.9007 63.1552 54.3235 62.4405C52.7272 60.4636 50.2634 60.8567 47.9698 60.8584L41.3255 60.8541C39.8868 60.8533 37.7073 61.1499 36.5948 60.1751C35.8064 59.4842 35.6347 58.4597 35.3273 57.5055L34.2157 54.0705L32.3284 48.2388C31.9201 46.9903 31.3614 45.563 31.1735 44.2858C30.9913 43.0478 32.1703 41.702 33.414 41.6553C35.1114 41.5916 36.8168 41.6278 38.5139 41.6281L50.413 41.6261C52.994 41.6118 54.7619 40.4878 55.2558 37.8103C55.4046 37.0029 55.3367 36.0361 55.3328 35.206L55.3152 31.8115C55.3092 30.6275 55.1726 29.3102 56.208 28.5113C57.0627 27.8518 58.5729 28.0164 59.608 28.0227Z" fill="#FEFEFE"/>
</svg>
