<svg width="142" height="40" viewBox="0 0 142 40" fill="none" xmlns="http://www.w3.org/2000/svg">
<path d="M32 0H8C3.58172 0 0 3.58172 0 8V32C0 36.4183 3.58172 40 8 40H32C36.4183 40 40 36.4183 40 32V8C40 3.58172 36.4183 0 32 0Z" fill="#153E40"/>
<path d="M24.3555 9.34202C23.9505 9.34202 22.8661 9.73712 21.9065 10.6125C19.3161 12.9739 17.5049 15.7024 16.6509 18.4804C19.583 17.3976 21.8229 15.6292 23.5764 13.0856C24.9376 11.1099 24.9414 10.2081 24.8804 9.91212C24.8617 9.82182 24.8193 9.61552 24.405 9.34262C24.3885 9.34172 24.372 9.34112 24.3555 9.34202ZM23.1901 35.2771C21.7563 35.2771 20.1976 34.969 18.5646 34.1723C14.9216 32.3946 12.4259 28.4463 11.8718 23.9495C10.8019 24.0595 9.68313 24.1248 8.51559 24.1453L6.34557 24.1811L6.27405 19.8416L8.44406 19.8059C9.6167 19.7906 10.7877 19.7133 11.9522 19.5742C12.6416 15.2232 15.1142 10.9316 18.9838 7.40482C21.1131 5.46362 24.3131 4.16297 26.6575 5.63142C27.9885 6.46452 28.8441 7.64082 29.1335 9.03342C29.5236 10.9173 28.876 13.0499 27.1527 15.5495C24.4859 19.4191 20.9128 21.922 16.1651 23.1797C16.4705 26.0573 17.8707 29.0037 20.4677 30.2713C24.6928 32.3319 28.301 28.7825 28.4523 28.6301L29.9747 27.1005L33.0597 30.12L31.5549 31.6667C31.3717 31.8548 27.9703 35.2788 23.1918 35.2788" fill="#BCE2CE"/>
<path d="M57.5194 31.4179C51.8194 31.4179 47.9814 27.1239 47.9814 20.8539C47.9814 14.5459 51.8194 10.2899 57.5194 10.2899C63.8654 10.2899 67.4374 14.6979 67.0194 21.9939H52.0094C52.3514 25.7559 54.4034 28.0739 57.5954 28.0739C60.1794 28.0739 62.0034 26.9719 62.8014 24.8819H66.9814C65.7274 29.0999 62.4214 31.4179 57.5194 31.4179ZM52.0854 19.0299H63.1434C62.6494 15.4959 60.7114 13.5959 57.5954 13.5959C54.5934 13.5959 52.6174 15.6479 52.0854 19.0299ZM77.3402 30.9999C73.2742 30.9999 71.3742 29.4419 71.3742 26.1359V13.8999H67.4602V10.6699H70.2342C71.0702 10.6699 71.5642 10.1759 71.5642 9.37794V5.31194L75.4022 4.96994V10.6699H80.3042V13.8999H75.4022V25.7179C75.4022 27.0479 76.2002 27.6939 77.9482 27.6939H80.3042L79.9622 30.9999H77.3402ZM82.1601 30.9999V3.03194L86.1881 2.68994V13.7859H86.3781C87.4421 11.6959 90.0262 10.2899 92.7241 10.2899C97.0942 10.2899 99.9441 13.1399 99.9441 17.5859V30.9999H95.9542V18.1179C95.9542 15.5719 94.3201 13.9379 91.8501 13.9379C88.5821 13.9379 86.1881 16.4839 86.1881 20.0179V30.9999H82.1601ZM111.845 31.4179C105.955 31.4179 101.965 27.1239 101.965 20.8539C101.965 14.5839 105.955 10.2899 111.845 10.2899C117.735 10.2899 121.725 14.5839 121.725 20.8539C121.725 27.1239 117.735 31.4179 111.845 31.4179ZM111.845 28.0359C115.417 28.0359 117.735 25.2239 117.735 20.8539C117.735 16.4459 115.417 13.6339 111.845 13.6339C108.273 13.6339 105.955 16.4459 105.955 20.8539C105.955 25.2239 108.273 28.0359 111.845 28.0359ZM131.337 31.4179C126.359 31.4179 123.319 28.9859 123.167 24.8819H127.347C127.423 26.8959 128.943 28.1119 131.413 28.1119C134.035 28.1119 135.669 27.0479 135.669 25.3379C135.669 24.0079 134.833 23.1719 133.237 22.9059L128.981 22.1839C125.599 21.6139 123.737 19.5999 123.737 16.5219C123.737 12.7599 126.777 10.2899 131.451 10.2899C136.011 10.2899 139.013 12.7219 139.241 16.6739H135.213C135.137 14.7739 133.617 13.5579 131.337 13.5579C129.171 13.5579 127.765 14.6219 127.765 16.2559C127.765 17.5099 128.601 18.3459 130.197 18.6119L134.453 19.3339C137.797 19.9039 139.697 21.9179 139.697 24.9579C139.697 28.9099 136.467 31.4179 131.337 31.4179Z" fill="#153E40"/>
</svg>
