<svg width="40" height="40" viewBox="0 0 40 40" fill="none" xmlns="http://www.w3.org/2000/svg">
<path d="M32 0H8C3.58172 0 0 3.58172 0 8V32C0 36.4183 3.58172 40 8 40H32C36.4183 40 40 36.4183 40 32V8C40 3.58172 36.4183 0 32 0Z" fill="#153E40"/>
<path d="M24.3555 9.34202C23.9505 9.34202 22.8661 9.73712 21.9065 10.6125C19.3161 12.9739 17.5049 15.7024 16.6509 18.4804C19.583 17.3976 21.8229 15.6292 23.5764 13.0856C24.9376 11.1099 24.9414 10.2081 24.8804 9.91212C24.8617 9.82182 24.8193 9.61552 24.405 9.34262C24.3885 9.34172 24.372 9.34112 24.3555 9.34202ZM23.1901 35.2771C21.7563 35.2771 20.1976 34.969 18.5646 34.1723C14.9216 32.3946 12.4259 28.4463 11.8718 23.9495C10.8019 24.0595 9.68313 24.1248 8.51559 24.1453L6.34557 24.1811L6.27405 19.8416L8.44406 19.8059C9.6167 19.7906 10.7877 19.7133 11.9522 19.5742C12.6416 15.2232 15.1142 10.9316 18.9838 7.40482C21.1131 5.46362 24.3131 4.16297 26.6575 5.63142C27.9885 6.46452 28.8441 7.64082 29.1335 9.03342C29.5236 10.9173 28.876 13.0499 27.1527 15.5495C24.4859 19.4191 20.9128 21.922 16.1651 23.1797C16.4705 26.0573 17.8707 29.0037 20.4677 30.2713C24.6928 32.3319 28.301 28.7825 28.4523 28.6301L29.9747 27.1005L33.0597 30.12L31.5549 31.6667C31.3717 31.8548 27.9703 35.2788 23.1918 35.2788" fill="#BCE2CE"/>
</svg>
